<?xml version="1.0" standalone="no"?><!DOCTYPE svg PUBLIC "-//W3C//DTD SVG 1.1//EN" "http://www.w3.org/Graphics/SVG/1.1/DTD/svg11.dtd"><svg t="1757675003701" class="icon" viewBox="0 0 1024 1024" version="1.1" xmlns="http://www.w3.org/2000/svg" p-id="1982" xmlns:xlink="http://www.w3.org/1999/xlink" width="200" height="200"><path d="M791.338667 698.538667c4.266667-21.162667 34.432-21.162667 38.784 0a119.082667 119.082667 0 0 0 92.672 92.757333c21.162667 4.266667 21.162667 34.517333 0 38.741333a119.082667 119.082667 0 0 0-92.672 92.757334c-4.352 21.162667-34.56 21.162667-38.912 0a118.997333 118.997333 0 0 0-92.672-92.757334c-21.162667-4.266667-21.162667-34.517333 0-38.741333a119.04 119.04 0 0 0 92.672-92.757333h0.128z" p-id="1983" fill="#1296db"></path><path d="M396.842667 190.634667c30.165333-58.538667 114.858667-58.538667 145.024 0l2.816 6.016 40.917333 96.938666 3.84 8.533334a192.042667 192.042667 0 0 0 98.304 93.610666l96.938667 40.96c64.512 27.264 66.517333 116.650667 6.058666 147.797334l-6.058666 2.858666-96.896 40.917334a192.085333 192.085333 0 0 0-102.186667 102.144l-40.917333 96.938666c-28.16 66.56-122.538667 66.56-150.656 0l-40.96-96.938666a192.128 192.128 0 0 0-102.144-102.144l-96.896-40.96c-66.56-28.117333-66.56-122.496 0-150.613334l96.896-40.96 8.533333-3.84A192.085333 192.085333 0 0 0 353.109333 293.546667l40.917334-96.938667 2.816-6.016z m34.858666 136.149333a277.333333 277.333333 0 0 1-147.541333 147.541333L194.986667 512l89.173333 37.674667a277.333333 277.333333 0 0 1 147.541333 147.541333L469.333333 786.346667l37.674667-89.173334a277.333333 277.333333 0 0 1 147.541333-147.498666l89.173334-37.674667-89.173334-37.674667a277.333333 277.333333 0 0 1-141.994666-135.253333l-5.546667-12.288L469.333333 237.653333l-37.632 89.173334zM810.666667 85.333333a128 128 0 1 1 0 256 128 128 0 0 1 0-256z m0 85.333334a42.666667 42.666667 0 1 0 0 85.333333 42.666667 42.666667 0 0 0 0-85.333333z" p-id="1984" fill="#1296db"></path></svg>