<?xml version="1.0" standalone="no"?><!DOCTYPE svg PUBLIC "-//W3C//DTD SVG 1.1//EN" "http://www.w3.org/Graphics/SVG/1.1/DTD/svg11.dtd"><svg t="1757942769177" class="icon" viewBox="0 0 1024 1024" version="1.1" xmlns="http://www.w3.org/2000/svg" p-id="22524" xmlns:xlink="http://www.w3.org/1999/xlink" width="200" height="200"><path d="M999.936 424.96l-91.648-37.888-1.024-0.512a404.736 404.736 0 0 0-27.136-65.024l1.024-2.048 37.376-90.112a39.424 39.424 0 0 0-8.704-43.008l-71.68-71.68a39.424 39.424 0 0 0-43.008-8.704L704 143.36l-1.024 0.512a425.152 425.152 0 0 0-65.024-27.136c0-0.512-0.512-1.024-0.512-1.536L599.552 24.576A39.488 39.488 0 0 0 563.2 0H461.824a39.488 39.488 0 0 0-36.352 24.576l-37.888 91.648-0.512 1.024a404.736 404.736 0 0 0-65.024 27.136L320 143.36l-91.136-37.888a39.424 39.424 0 0 0-43.008 8.704l-71.68 71.68a39.424 39.424 0 0 0-8.704 43.008l37.888 91.648c0 0.512 0.512 1.024 0.512 1.024a430.848 430.848 0 0 0-27.136 65.536l-1.536 0.512-90.624 37.376A39.488 39.488 0 0 0 0 461.312v101.376c0 15.872 9.728 30.208 24.576 36.352l91.648 37.888 1.024 0.512c7.168 22.016 16.384 44.032 27.136 65.024-0.512 0.512-0.512 1.536-1.024 2.048l-37.376 90.624a39.424 39.424 0 0 0 8.704 43.008l71.68 71.68c11.264 11.264 28.16 14.848 43.008 8.704l91.136-37.888 1.024-0.512c20.992 10.752 43.008 19.968 65.536 27.136l0.512 1.536 37.888 90.624c6.144 14.848 20.48 24.576 36.352 24.576H563.2a39.488 39.488 0 0 0 36.352-24.576l37.888-91.648 0.512-1.024a404.736 404.736 0 0 0 65.024-27.136l2.048 1.024 90.112 37.376c14.848 6.144 31.744 2.56 43.008-8.704l71.68-71.68a39.424 39.424 0 0 0 8.704-43.008l-37.888-91.136c0-0.512-0.512-1.024-0.512-1.024 10.752-20.992 19.968-43.008 27.136-65.536 0.512 0 1.024-0.512 1.536-0.512l90.624-37.888A39.488 39.488 0 0 0 1024 562.176V460.8a38.848 38.848 0 0 0-24.064-35.84zM512 659.456a147.52 147.52 0 1 1 0.064-295.04A147.52 147.52 0 0 1 512 659.52z" fill="#DA79A9" p-id="22525"></path></svg>