<?xml version="1.0" standalone="no"?><!DOCTYPE svg PUBLIC "-//W3C//DTD SVG 1.1//EN" "http://www.w3.org/Graphics/SVG/1.1/DTD/svg11.dtd"><svg t="1757942580214" class="icon" viewBox="0 0 1024 1024" version="1.1" xmlns="http://www.w3.org/2000/svg" p-id="5992" xmlns:xlink="http://www.w3.org/1999/xlink" width="200" height="200"><path d="M604.3648 291.6864a214.2464 214.2464 0 0 1 235.9552 256 183.0144 183.0144 0 0 0-59.5968-42.3424 150.2464 150.2464 0 0 0-228.736-129.152 261.888 261.888 0 0 0-65.0752-30.8736 213.0176 213.0176 0 0 1 117.4528-53.632zM733.44 212.992a32 32 0 0 1 59.2384 24.0384l-1.2288 3.0208-18.8672 40.4736a32 32 0 0 1-59.2384-24.0128l1.2288-3.0208 18.8672-40.4736zM468.864 208.384a32 32 0 0 1 42.4192 4.992l2.176 2.7392 24.7808 35.1744a32 32 0 0 1-50.176 39.6032l-2.1504-2.7392-24.7808-35.1744a32 32 0 0 1 7.7312-44.5952zM916.9408 409.7024a32 32 0 0 1 3.2768 63.8208l-3.2768 0.1792h-31.5392a32 32 0 0 1-3.2768-63.8464l3.2768-0.1536h31.5392z" fill="#FB553C" p-id="5993"></path><path d="M858.5472 285.44a32 32 0 0 1 36.4544 52.48l-2.8672 2.0224-36.7872 22.6816a32 32 0 0 1-36.4544-52.48l2.8672-1.9968 36.7872-22.7072zM629.7088 166.0416a32 32 0 0 1 30.8224 29.824l0.0512 3.2768-1.536 44.6208a32 32 0 0 1-63.9232 1.024l-0.0512-3.2512 1.536-44.6208a32 32 0 0 1 33.1008-30.8736zM393.7792 346.112c-141.3888 0-256 114.6368-256 256 0 141.4144 114.6112 256 256 256H701.952a175.1296 175.1296 0 0 0 0-350.2592l-7.7312 0.1536a174.6432 174.6432 0 0 0-52.0448 10.3168l-5.7088 2.2016-0.9984-2.9696a256.1792 256.1792 0 0 0-241.6896-171.4176z m0 64c95.4624 0 176.0768 70.144 189.9008 163.6096a32 32 0 0 0 51.072 20.7872 111.1296 111.1296 0 1 1 67.2256 199.6288H393.728a192 192 0 0 1 0-384z" fill="#FB553C" p-id="5994"></path></svg>